# xmcd
#
# Track frame offsets: 
#        183
#        13713
#        29128
#        49600
#        69843
#        78100
#        93693
#        118315
#        148255
#        160275
#
# Disc length: 2464 seconds
#
# Revision: 3
# Processed by: cddbd v1.5PL3 Copyright (c) Steve Scherf et al.
# Submitted via: ExactAudioCopy v0.95a3
#
DISCID=88099e0a
DTITLE=George Duke - I Love The Blues, She Heard My Cry
DYEAR=1975
DGENRE=
TTITLE0=Chariot
TTITLE1=Look Into Her Eyes
TTITLE2=Sister Serene
TTITLE3=That's What She Said
TTITLE4=Mashavu
TTITLE5=Rokkinrowl
TTITLE6=Prepare Yourself
TTITLE7=Giant Child Within Us - Ego
TTITLE8=Someday
TTITLE9=I Love The Blues, She Heard My Cry
EXTD=
EXTT0=
EXTT1=
EXTT2=
EXTT3=
EXTT4=
EXTT5=
EXTT6=
EXTT7=
EXTT8=
EXTT9=
PLAYORDER=
